<?xml version="1.0" encoding="utf-8"?>
<!-- Generator: Adobe Illustrator 16.0.0, SVG Export Plug-In . SVG Version: 6.00 Build 0)  -->
<!DOCTYPE svg PUBLIC "-//W3C//DTD SVG 1.1//EN" "http://www.w3.org/Graphics/SVG/1.1/DTD/svg11.dtd">
<svg version="1.1" id="Layer_1" xmlns="http://www.w3.org/2000/svg" xmlns:xlink="http://www.w3.org/1999/xlink" x="0px" y="0px"
	 width="818.979px" height="328.572px" viewBox="0 0 818.979 328.572" enable-background="new 0 0 818.979 328.572"
	 xml:space="preserve">
<path fill="#010101" d="M103.28,108.235l-12.458,5.068c-26.333,12.149-42.829,24.476-42.156,50.045
	c0.034,12.187,5.168,20.944,10.741,28.794c7.224,7.995,16.208,13.012,26.721,14.915c2.587,0.471,5.078,0.743,7.445,0.837
	l0.036,10.185c-3.389-0.215-7.439-0.672-11.106-1.339c-16.003-2.892-28.768-11.799-37.953-26.476
	c-8.668-13.779-11.64-27.978-8.832-42.217c4.42-16.518,10.35-24.752,23.352-36.05c7.139-6.213,15.807-13.04,35.467-24.354
	l10.634-5.717L103.28,108.235z"/>
<path fill="#010101" d="M107.63,162.861c7.739,2.487,12.89,10.178,11.871,18.543c-0.724,5.94-3.789,15.081-7.975,19.554l0.519,14.34
	c5.996-1.857,11.327-5.146,15.878-9.803c5.813-5.901,9.57-13.256,11.192-21.854c2.011-10.552,0.632-20.512-4.065-29.603
	c-5.156-9.961-13.139-16.025-23.74-18.03c-1.213-0.23-1.824-0.341-3.87-0.447l-1.173,0.011l-7.563,0.474l-1.931,0.346
	c-6.036,1.675-11.494,4.814-16.269,9.356c-5.504,5.297-8.958,11.443-10.249,18.275c-1.335,7.1-0.538,13.848,2.378,20.019
	c1.508,3.287,3.768,6.323,6.468,8.906c4.429,4.215,10.077,4.628,11.207,2.768c1.14-1.857-1.821-5.354-3.935-9.794
	c-1.206-2.517-1.6-5.407-1.197-8.708c0.853-7,5.81-12.503,12.151-14.435"/>
<path fill="#010101" d="M106.679,129.753c-0.463-6.548,0.212-67.183,0.899-71.746c0.943-6.318,3.353-11.346,7.174-14.953
	c2.431-2.292,5.161-3.641,8.174-4.267c-4.275,3.623-7.168,8.871-7.667,14.898c-0.992,12.035,7.96,22.604,19.997,23.597
	c3.342,0.276,6.535-0.275,9.475-1.384c0.372-0.124,0.728-0.329,1.097-0.486c0.811-0.359,1.625-0.718,2.39-1.168
	c0.264-0.167,0.52-0.363,0.779-0.543c5.186-3.401,8.856-8.917,9.682-15.484c0.001-0.01,0.013-0.022,0.014-0.032
	c0.001-0.003,0.001-0.008,0.002-0.014c0.039-0.31,0.138-0.581,0.163-0.886c0.021-0.257-0.026-0.497-0.017-0.745
	c0.594-7.059-1.838-13.376-7.318-18.783c-5.182-5.11-11.637-8.266-19.186-9.389c-4.289-0.634-8.494-0.484-12.486,0.459
	c-3.264,0.776-6.469,2.096-9.504,3.919c-7.349,4.431-11.666,10.66-12.84,18.539c-0.896,6.01-1.771,70.182-1.417,78.415"/>
<path fill="#010101" d="M97.245,162.286c0.463,6.549-0.212,77.183-0.899,81.746c-0.943,6.317-3.353,11.346-7.174,14.953
	c-2.431,2.291-5.161,3.641-8.174,4.266c4.275-3.623,7.168-8.871,7.667-14.897c0.992-12.034-7.96-22.604-19.997-23.597
	c-3.342-0.277-6.535,0.274-9.475,1.383c-0.372,0.125-0.728,0.33-1.097,0.486c-0.811,0.359-1.625,0.719-2.39,1.168
	c-0.264,0.168-0.52,0.363-0.779,0.543c-5.186,3.402-8.856,8.918-9.682,15.484c-0.001,0.01-0.013,0.022-0.014,0.032
	c-0.001,0.003-0.001,0.009-0.002,0.015c-0.039,0.31-0.138,0.58-0.163,0.886c-0.021,0.257,0.026,0.497,0.017,0.745
	c-0.594,7.059,1.838,13.375,7.318,18.782c5.182,5.11,11.637,8.266,19.186,9.389c4.289,0.634,8.494,0.483,12.486-0.46
	c3.264-0.775,6.469-2.096,9.504-3.919c7.349-4.431,11.666-10.659,12.84-18.538c0.896-6.01,1.771-80.183,1.417-88.416"/>
<text transform="matrix(1 0 0 1 150.6318 195.0454)" font-family="'Roboto-Bold'" font-size="57.3697">THE SINGING DESIGNER</text>
<line fill="none" stroke="#000000" stroke-miterlimit="10" x1="150.632" y1="144.898" x2="784.284" y2="144.898"/>
<line fill="none" stroke="#000000" stroke-miterlimit="10" x1="150.632" y1="207.041" x2="784.284" y2="207.041"/>
</svg>
