<?xml version="1.0" encoding="utf-8"?>
<!-- Generator: Adobe Illustrator 16.0.0, SVG Export Plug-In . SVG Version: 6.00 Build 0)  -->
<!DOCTYPE svg PUBLIC "-//W3C//DTD SVG 1.1//EN" "http://www.w3.org/Graphics/SVG/1.1/DTD/svg11.dtd">
<svg version="1.1" id="Layer_1" xmlns="http://www.w3.org/2000/svg" xmlns:xlink="http://www.w3.org/1999/xlink" x="0px" y="0px"
	 width="600px" height="600px" viewBox="0 0 600 600" enable-background="new 0 0 600 600" xml:space="preserve">
<path fill="#010101" d="M315.272,205.365l-27.853,11.331c-58.875,27.163-95.755,54.722-94.25,111.888
	c0.076,27.247,11.554,46.827,24.015,64.376c16.15,17.876,36.237,29.092,59.742,33.348c5.784,1.053,11.353,1.661,16.646,1.87
	l0.081,22.771c-7.577-0.48-16.633-1.502-24.83-2.993c-35.78-6.465-64.319-26.379-84.854-59.193
	c-19.38-30.807-26.024-62.551-19.745-94.387c9.883-36.93,23.14-55.34,52.208-80.6c15.96-13.892,35.34-29.153,79.295-54.449
	l23.775-12.783L315.272,205.365z"/>
<path fill="#010101" d="M324.997,327.495c17.304,5.561,28.819,22.755,26.539,41.458c-1.616,13.281-8.469,33.717-17.829,43.717
	l1.161,32.061c13.404-4.153,25.323-11.504,35.5-21.917c12.995-13.194,21.396-29.637,25.023-48.861
	c4.496-23.591,1.412-45.858-9.09-66.184c-11.528-22.272-29.377-35.829-53.075-40.312c-2.714-0.514-4.078-0.762-8.652-0.999
	l-2.623,0.025l-16.909,1.059l-4.317,0.774c-13.496,3.746-25.698,10.763-36.373,20.919c-12.307,11.843-20.027,25.583-22.915,40.858
	c-2.984,15.873-1.203,30.96,5.318,44.757c3.371,7.35,8.424,14.138,14.46,19.912c9.901,9.424,22.53,10.347,25.055,6.188
	c2.548-4.152-4.072-11.969-8.797-21.896c-2.696-5.627-3.576-12.089-2.676-19.47c1.907-15.649,12.99-27.953,27.167-32.271"/>
<path fill="#010101" d="M322.871,253.473c-1.037-14.64,0.474-150.204,2.011-160.406c2.109-14.125,7.498-25.368,16.039-33.432
	c5.437-5.123,11.541-8.141,18.274-9.539c-9.556,8.1-16.025,19.833-17.14,33.308c-2.218,26.907,17.8,50.538,44.709,52.757
	c7.472,0.618,14.611-0.614,21.185-3.094c0.831-0.277,1.627-0.736,2.453-1.086c1.813-0.803,3.631-1.606,5.342-2.611
	c0.592-0.375,1.162-0.811,1.743-1.215c11.593-7.605,19.801-19.938,21.647-34.62c0.002-0.022,0.028-0.049,0.03-0.071
	c0.003-0.007,0.003-0.019,0.005-0.031c0.085-0.693,0.308-1.299,0.364-1.981c0.049-0.575-0.057-1.11-0.039-1.665
	c1.328-15.781-4.109-29.905-16.359-41.993c-11.587-11.426-26.02-18.48-42.895-20.991c-9.59-1.417-18.991-1.082-27.917,1.027
	c-7.299,1.736-14.463,4.687-21.251,8.763c-16.429,9.907-26.08,23.833-28.706,41.448c-2.003,13.437-3.96,156.91-3.168,175.317"/>
<path fill="#010101" d="M301.779,326.209c1.038,14.642-0.474,172.562-2.011,182.765c-2.109,14.124-7.496,25.366-16.04,33.431
	c-5.435,5.123-11.539,8.14-18.275,9.538c9.558-8.101,16.027-19.834,17.141-33.308c2.218-26.905-17.797-50.538-44.708-52.757
	c-7.471-0.619-14.611,0.614-21.184,3.092c-0.831,0.279-1.628,0.738-2.453,1.088c-1.813,0.804-3.632,1.607-5.344,2.611
	c-0.59,0.375-1.161,0.812-1.742,1.214c-11.594,7.606-19.8,19.938-21.647,34.619c-0.002,0.022-0.03,0.05-0.031,0.071
	c-0.002,0.008-0.002,0.02-0.004,0.033c-0.086,0.692-0.308,1.297-0.365,1.98c-0.048,0.574,0.058,1.112,0.038,1.666
	c-1.327,15.781,4.11,29.903,16.361,41.992c11.586,11.426,26.018,18.48,42.895,20.991c9.589,1.417,18.991,1.081,27.917-1.028
	c7.298-1.733,14.463-4.685,21.25-8.762c16.431-9.906,26.082-23.831,28.708-41.446c2.003-13.438,3.96-179.271,3.167-197.678"/>
</svg>
